<svg width="194" height="170" viewBox="0 0 194 170" fill="none" xmlns="http://www.w3.org/2000/svg">
<g clip-path="url(#clip0_12_77)">
<path d="M177.151 1.26661L121.41 30.0789C119.561 31.0336 117.511 31.5361 115.431 31.5361H78.0696C75.9894 31.5361 73.9395 31.0336 72.0905 30.0789L16.3394 1.26661C8.88319 -2.5824 0 2.8243 0 11.2157V133.057C0 152.986 16.1485 169.136 36.0754 169.136H157.415C177.342 169.136 193.491 152.986 193.491 133.057V11.2157C193.491 2.8243 184.608 -2.5824 177.151 1.26661Z" fill="#444444"/>
</g>
<g clip-path="url(#clip1_12_77)">
<path d="M17.5898 71.7134H20.8915V94.6356L46.0466 71.7134H50.4697L28.9201 91.2891L52.1467 114.396H47.7236L26.5514 93.4243L20.881 98.485V114.396H17.5898V71.7134Z" fill="#DAFE9B"/>
<path d="M56.3811 86.2284C57.88 84.9658 59.7561 83.929 62.0201 83.118C64.284 82.3071 66.4537 81.8965 68.529 81.8965C72.9311 81.8965 76.2537 82.9949 78.4862 85.1916C80.7187 87.3884 81.8507 90.5193 81.8507 94.5843V114.406H78.8006V108.678C76.1069 112.784 71.8096 114.838 65.9086 114.838C62.4184 114.838 59.6094 113.996 57.4712 112.302C55.333 110.619 54.2639 108.37 54.2639 105.568C54.2639 99.2652 59.5779 96.1138 70.206 96.1138C73.6124 96.1138 76.4738 96.4423 78.8006 97.089C78.8006 93.065 78.046 90.006 76.5262 87.9119C75.0064 85.8178 72.2184 84.7707 68.1516 84.7707C64.6614 84.7707 61.3283 86.0539 58.1315 88.6099L56.3916 86.2284H56.3811ZM74.5243 109.489C76.6205 107.847 78.046 106.081 78.7902 104.213V99.9427C76.6729 99.296 73.9792 98.9675 70.6986 98.9675C66.3384 98.9675 63.0577 99.45 60.8671 100.405C58.6661 101.359 57.5655 102.971 57.5655 105.25C57.5655 107.323 58.4145 108.956 60.123 110.157C61.8209 111.358 64.0639 111.953 66.852 111.953C69.8811 111.953 72.449 111.132 74.5452 109.479L74.5243 109.489Z" fill="#DAFE9B"/>
<path d="M89.9319 82.6869H92.9819V86.4645C93.6003 85.0376 94.659 83.9393 96.1578 83.1386C97.6566 82.3482 99.1449 81.9478 100.644 81.9478C103.505 81.9478 105.727 82.923 107.31 84.8734L105.067 86.7006C103.903 85.438 102.352 84.8118 100.392 84.8118C98.6104 84.8118 97.0172 85.4688 95.6337 86.793C94.2397 88.1172 93.3593 89.7083 92.9924 91.5766V114.386H89.9424V82.6869H89.9319Z" fill="#DAFE9B"/>
<path d="M137.999 108.299C136.626 110.495 134.823 112.158 132.58 113.298C130.337 114.437 127.895 115.002 125.233 115.002C120.087 115.002 115.946 113.503 112.813 110.485C109.679 107.477 108.117 103.474 108.117 98.4748C108.117 93.4756 109.553 89.6672 112.414 86.5569C115.276 83.4465 119.28 81.8965 124.426 81.8965C128.702 81.8965 132.213 83.2104 134.981 85.8281C137.737 88.4457 139.121 91.9153 139.121 96.2267C139.121 97.4072 139.058 98.4235 138.932 99.2755H111.408C111.408 103.258 112.708 106.4 115.297 108.699C117.896 110.998 121.26 112.148 125.411 112.148C127.528 112.148 129.53 111.614 131.417 110.536C133.304 109.459 134.771 108.124 135.809 106.543L137.989 108.309L137.999 108.299ZM115.118 88.0248C112.854 90.201 111.555 92.9932 111.23 96.4115H135.819C135.777 92.7981 134.708 89.9444 132.612 87.8708C130.515 85.7973 127.665 84.7605 124.049 84.7605C120.432 84.7605 117.372 85.8486 115.118 88.0248Z" fill="#DAFE9B"/>
<path d="M145.724 82.6869H148.774V87.9324C149.979 85.982 151.698 84.4936 153.941 83.4773C156.184 82.4611 158.595 81.9478 161.163 81.9478C170.082 81.9478 174.547 86.7006 174.547 96.2164V114.386H171.497V96.8221C171.497 88.8152 167.724 84.8118 160.167 84.8118C157.882 84.8118 155.67 85.5201 153.532 86.947C151.394 88.3738 149.811 90.201 148.774 92.4389V114.386H145.724V82.6869Z" fill="#DAFE9B"/>
</g>
<defs>
<clipPath id="clip0_12_77">
<rect width="193.491" height="169.135" fill="white"/>
</clipPath>
<clipPath id="clip1_12_77">
<rect width="156.957" height="43.2986" fill="white" transform="translate(17.5898 71.7134)"/>
</clipPath>
</defs>
</svg>
