<svg width="56" height="55" viewBox="0 0 56 55" fill="none" xmlns="http://www.w3.org/2000/svg">
<path d="M50.75 8.59375H5.25C3.317 8.59375 1.75 10.1328 1.75 12.0313V49.8438C1.75 51.7422 3.317 53.2813 5.25 53.2813H50.75C52.6829 53.2813 54.25 51.7422 54.25 49.8438V12.0313C54.25 10.1328 52.6829 8.59375 50.75 8.59375Z" stroke="#DAFE9B" stroke-width="2" stroke-linecap="round" stroke-linejoin="round"/>
<path d="M1.75 22.3438H54.25" stroke="#DAFE9B" stroke-width="2" stroke-linecap="round" stroke-linejoin="round"/>
<path d="M15.75 13.75V1.71875" stroke="#DAFE9B" stroke-width="2" stroke-linecap="round" stroke-linejoin="round"/>
<path d="M40.25 13.75V1.71875" stroke="#DAFE9B" stroke-width="2" stroke-linecap="round" stroke-linejoin="round"/>
<path d="M13.125 32.6563C12.6417 32.6563 12.25 32.2715 12.25 31.7969C12.25 31.3223 12.6417 30.9375 13.125 30.9375" stroke="#DAFE9B" stroke-width="2"/>
<path d="M13.125 32.6563C13.6083 32.6563 14 32.2715 14 31.7969C14 31.3223 13.6083 30.9375 13.125 30.9375" stroke="#DAFE9B" stroke-width="2"/>
<path d="M13.125 44.6875C12.6417 44.6875 12.25 44.3027 12.25 43.8281C12.25 43.3535 12.6417 42.9688 13.125 42.9688" stroke="#DAFE9B" stroke-width="2"/>
<path d="M13.125 44.6875C13.6083 44.6875 14 44.3027 14 43.8281C14 43.3535 13.6083 42.9688 13.125 42.9688" stroke="#DAFE9B" stroke-width="2"/>
<path d="M28 32.6563C27.5168 32.6563 27.125 32.2715 27.125 31.7969C27.125 31.3223 27.5168 30.9375 28 30.9375" stroke="#DAFE9B" stroke-width="2"/>
<path d="M28 32.6563C28.4832 32.6563 28.875 32.2715 28.875 31.7969C28.875 31.3223 28.4832 30.9375 28 30.9375" stroke="#DAFE9B" stroke-width="2"/>
<path d="M28 44.6875C27.5168 44.6875 27.125 44.3027 27.125 43.8281C27.125 43.3535 27.5168 42.9688 28 42.9688" stroke="#DAFE9B" stroke-width="2"/>
<path d="M28 44.6875C28.4832 44.6875 28.875 44.3027 28.875 43.8281C28.875 43.3535 28.4832 42.9688 28 42.9688" stroke="#DAFE9B" stroke-width="2"/>
<path d="M42.875 32.6563C42.3918 32.6563 42 32.2715 42 31.7969C42 31.3223 42.3918 30.9375 42.875 30.9375" stroke="#DAFE9B" stroke-width="2"/>
<path d="M42.875 32.6563C43.3582 32.6563 43.75 32.2715 43.75 31.7969C43.75 31.3223 43.3582 30.9375 42.875 30.9375" stroke="#DAFE9B" stroke-width="2"/>
<path d="M42.875 44.6875C42.3918 44.6875 42 44.3027 42 43.8281C42 43.3535 42.3918 42.9688 42.875 42.9688" stroke="#DAFE9B" stroke-width="2"/>
<path d="M42.875 44.6875C43.3582 44.6875 43.75 44.3027 43.75 43.8281C43.75 43.3535 43.3582 42.9688 42.875 42.9688" stroke="#DAFE9B" stroke-width="2"/>
</svg>
