<svg width="55" height="56" viewBox="0 0 55 56" fill="none" xmlns="http://www.w3.org/2000/svg">
<path d="M1.71875 28C1.71875 34.962 4.43497 41.6388 9.26991 46.5617C14.1048 51.4843 20.6624 54.25 27.5 54.25C34.3376 54.25 40.8953 51.4843 45.7302 46.5617C50.5649 41.6388 53.2813 34.962 53.2813 28C53.2813 21.0381 50.5649 14.3613 45.7302 9.43845C40.8953 4.51561 34.3376 1.75 27.5 1.75C20.6624 1.75 14.1048 4.51561 9.26991 9.43845C4.43497 14.3613 1.71875 21.0381 1.71875 28Z" stroke="#DAFE9B" stroke-width="2" stroke-linecap="round" stroke-linejoin="round"/>
<path d="M39.5313 22.75H32.6563V15.75C32.6563 14.8218 32.2942 13.9315 31.6495 13.2751C31.0049 12.6188 30.1304 12.25 29.2188 12.25H25.7813C24.8696 12.25 23.9951 12.6188 23.3505 13.2751C22.7059 13.9315 22.3438 14.8218 22.3438 15.75V22.75H15.4688C14.5571 22.75 13.6827 23.1188 13.0381 23.775C12.3934 24.4314 12.0312 25.3218 12.0312 26.25V29.75C12.0312 30.6782 12.3934 31.5686 13.0381 32.225C13.6827 32.8813 14.5571 33.25 15.4688 33.25H22.3438V40.25C22.3438 41.1782 22.7059 42.0686 23.3505 42.725C23.9951 43.3813 24.8696 43.75 25.7813 43.75H29.2188C30.1304 43.75 31.0049 43.3813 31.6495 42.725C32.2942 42.0686 32.6563 41.1782 32.6563 40.25V33.25H39.5313C40.4429 33.25 41.3174 32.8813 41.962 32.225C42.6067 31.5686 42.9688 30.6782 42.9688 29.75V26.25C42.9688 25.3218 42.6067 24.4314 41.962 23.775C41.3174 23.1188 40.4429 22.75 39.5313 22.75Z" stroke="#DAFE9B" stroke-width="2" stroke-linecap="round" stroke-linejoin="round"/>
</svg>
