<svg width="56" height="56" viewBox="0 0 56 56" fill="none" xmlns="http://www.w3.org/2000/svg">
<path d="M33.25 38.5H31.5C30.5718 38.5 29.6814 38.1313 29.025 37.475C28.3687 36.8186 28 35.9282 28 35V26.25C28 25.7859 27.8157 25.3407 27.4874 25.0126C27.1593 24.6843 26.7141 24.5 26.25 24.5H24.5" stroke="#DAFE9B" stroke-width="2" stroke-linecap="round" stroke-linejoin="round"/>
<path d="M27.125 17.5C26.6418 17.5 26.25 17.1083 26.25 16.625C26.25 16.1417 26.6418 15.75 27.125 15.75" stroke="#DAFE9B" stroke-width="2"/>
<path d="M27.125 17.5C27.6082 17.5 28 17.1083 28 16.625C28 16.1417 27.6082 15.75 27.125 15.75" stroke="#DAFE9B" stroke-width="2"/>
<path d="M28 54.25C42.4975 54.25 54.25 42.4975 54.25 28C54.25 13.5025 42.4975 1.75 28 1.75C13.5025 1.75 1.75 13.5025 1.75 28C1.75 42.4975 13.5025 54.25 28 54.25Z" stroke="#DAFE9B" stroke-width="2" stroke-linecap="round" stroke-linejoin="round"/>
</svg>
