<svg width="56" height="51" viewBox="0 0 56 51" fill="none" xmlns="http://www.w3.org/2000/svg">
<path d="M16.3333 6.02081C16.3333 7.16041 16.7942 8.25333 17.6147 9.05917C18.4352 9.86499 19.548 10.3177 20.7083 10.3177C21.8686 10.3177 22.9814 9.86499 23.8018 9.05917C24.6225 8.25333 25.0833 7.16041 25.0833 6.02081C25.0833 4.88121 24.6225 3.78829 23.8018 2.98245C22.9814 2.17663 21.8686 1.72394 20.7083 1.72394C19.548 1.72394 18.4352 2.17663 17.6147 2.98245C16.7942 3.78829 16.3333 4.88121 16.3333 6.02081Z" stroke="#DAFE9B" stroke-width="2" stroke-linecap="round" stroke-linejoin="round"/>
<path d="M30.3333 6.02081C30.3333 7.16041 30.7941 8.25333 31.6148 9.05917C32.4352 9.86499 33.5479 10.3177 34.7083 10.3177C35.8687 10.3177 36.9814 9.86499 37.8018 9.05917C38.6225 8.25333 39.0833 7.16041 39.0833 6.02081C39.0833 4.88121 38.6225 3.78829 37.8018 2.98245C36.9814 2.17663 35.8687 1.72394 34.7083 1.72394C33.5479 1.72394 32.4352 2.17663 31.6148 2.98245C30.7941 3.78829 30.3333 4.88121 30.3333 6.02081Z" stroke="#DAFE9B" stroke-width="2" stroke-linecap="round" stroke-linejoin="round"/>
<path d="M1.75 20.0573C1.75 18.6898 2.30312 17.3783 3.28769 16.4113C4.27226 15.4443 5.60761 14.9011 7 14.9011H49C50.3923 14.9011 51.7277 15.4443 52.7123 16.4113C53.6968 17.3783 54.25 18.6898 54.25 20.0573" stroke="#DAFE9B" stroke-width="2" stroke-linecap="round" stroke-linejoin="round"/>
<path d="M40.1333 49.2761H15.8666C14.2298 49.2761 12.6157 48.9 11.1531 48.1784C9.69055 47.4565 8.42002 46.409 7.44299 45.1192C6.46595 43.8295 5.80947 42.3332 5.52592 40.7499C5.2424 39.1666 5.33965 37.5402 5.80996 36.0004L12.25 14.9011H43.75L50.1946 36.0004C50.665 37.5407 50.7623 39.1675 50.4784 40.7511C50.1946 42.3346 49.5378 43.8313 48.5602 45.121C47.5827 46.411 46.3115 47.4585 44.8483 48.18C43.3853 48.9014 41.7706 49.2768 40.1333 49.2761Z" stroke="#DAFE9B" stroke-width="2" stroke-linecap="round" stroke-linejoin="round"/>
</svg>
