<svg width="38" height="33" viewBox="0 0 38 33" fill="none" xmlns="http://www.w3.org/2000/svg">
<g clip-path="url(#clip0_12_103)">
<path d="M24.3004 6.75843L24.3008 6.75823L35.2474 1.13691C36.0565 0.721946 37 1.31035 37 2.18828V25.9608C37 29.2907 34.2824 32 30.9151 32H7.08491C3.71761 32 1 29.2907 1 25.9608V2.18828C1 1.31039 1.94339 0.721994 2.7525 1.13686C2.75254 1.13688 2.75257 1.13689 2.7526 1.13691L13.7012 6.75827L13.7016 6.75843C14.2048 7.01659 14.7637 7.15298 15.3322 7.15298H22.6697C23.2382 7.15298 23.7972 7.01659 24.3004 6.75843Z" stroke="white" stroke-width="2"/>
</g>
<defs>
<clipPath id="clip0_12_103">
<rect width="38" height="33" fill="white"/>
</clipPath>
</defs>
</svg>
