<svg width="104" height="28" viewBox="0 0 104 28" fill="none" xmlns="http://www.w3.org/2000/svg">
<g clip-path="url(#clip0_12_97)">
<path d="M0 0H2.18765V14.8231L18.8554 0H21.7862L7.50745 12.6591L22.8974 27.6017H19.9666L5.9379 14.0398L2.1807 17.3125V27.6017H0V0Z" fill="#DAFE9B"/>
<path d="M25.7031 9.38641C26.6962 8.56991 27.9394 7.89945 29.4395 7.37503C30.9396 6.85061 32.3772 6.58508 33.7522 6.58508C36.6691 6.58508 38.8706 7.29537 40.3499 8.71595C41.8292 10.1365 42.5792 12.1612 42.5792 14.7899V27.6083H40.5583V23.9042C38.7734 26.5595 35.926 27.8871 32.016 27.8871C29.7034 27.8871 27.8421 27.3428 26.4254 26.2475C25.0086 25.1588 24.3002 23.705 24.3002 21.8928C24.3002 17.8169 27.8213 15.779 34.8634 15.779C37.1205 15.779 39.0165 15.9914 40.5583 16.4096C40.5583 13.8075 40.0582 11.8293 39.0512 10.4751C38.0442 9.12088 36.1969 8.44378 33.5022 8.44378C31.1896 8.44378 28.9811 9.27356 26.8629 10.9265L25.71 9.38641H25.7031ZM37.7247 24.4286C39.1137 23.3665 40.0582 22.2247 40.5513 21.0166V18.2551C39.1484 17.8369 37.3636 17.6244 35.1898 17.6244C32.3008 17.6244 30.127 17.9364 28.6755 18.5538C27.2171 19.1711 26.4879 20.2133 26.4879 21.687C26.4879 23.0279 27.0504 24.0834 28.1824 24.8601C29.3075 25.6368 30.7937 26.0218 32.6411 26.0218C34.6481 26.0218 36.3496 25.4907 37.7386 24.422L37.7247 24.4286Z" fill="#DAFE9B"/>
<path d="M47.9338 7.09624H49.9547V9.5391C50.3645 8.61639 51.0659 7.9061 52.0591 7.38832C53.0522 6.87718 54.0384 6.61829 55.0315 6.61829C56.9274 6.61829 58.3998 7.24892 59.4484 8.51018L57.9622 9.69178C57.1913 8.87528 56.1635 8.47035 54.8648 8.47035C53.6842 8.47035 52.6285 8.89519 51.7118 9.75152C50.7881 10.6079 50.2048 11.6368 49.9617 12.8449V27.5951H47.9407V7.09624H47.9338Z" fill="#DAFE9B"/>
<path d="M79.7831 23.6586C78.8733 25.0792 77.6788 26.1545 76.1926 26.8914C74.7064 27.6282 73.0882 27.9933 71.3242 27.9933C67.9142 27.9933 65.171 27.0242 63.0945 25.0725C61.0179 23.1275 59.9832 20.5386 59.9832 17.3058C59.9832 14.073 60.9346 11.6102 62.8306 9.59883C64.7265 7.58745 67.3795 6.58508 70.7894 6.58508C73.623 6.58508 75.9495 7.43477 77.783 9.12752C79.6095 10.8203 80.5262 13.064 80.5262 15.852C80.5262 16.6154 80.4845 17.2726 80.4012 17.8236H62.1639C62.1639 20.3992 63.025 22.4305 64.7404 23.9175C66.4628 25.4044 68.6921 26.1479 71.4423 26.1479C72.8451 26.1479 74.1716 25.8027 75.4217 25.1057C76.6718 24.4087 77.6441 23.5457 78.3316 22.5234L79.7761 23.6652L79.7831 23.6586ZM64.6224 10.5481C63.1223 11.9554 62.2611 13.761 62.0458 15.9715H78.3385C78.3108 13.6349 77.6024 11.7894 76.2134 10.4485C74.8244 9.10761 72.9354 8.43715 70.5394 8.43715C68.1434 8.43715 66.1155 9.1408 64.6224 10.5481Z" fill="#DAFE9B"/>
<path d="M84.9015 7.09624H86.9225V10.4884C87.7211 9.22711 88.8601 8.26456 90.3463 7.60738C91.8325 6.9502 93.4298 6.61829 95.1313 6.61829C101.041 6.61829 104 9.69178 104 15.8454V27.5951H101.979V16.2371C101.979 11.0593 99.4788 8.47035 94.4716 8.47035C92.9576 8.47035 91.4922 8.92839 90.0754 9.8511C88.6587 10.7738 87.61 11.9554 86.9225 13.4025V27.5951H84.9015V7.09624Z" fill="#DAFE9B"/>
</g>
<defs>
<clipPath id="clip0_12_97">
<rect width="104" height="28" fill="white"/>
</clipPath>
</defs>
</svg>
