<svg width="33" height="36" viewBox="0 0 33 36" fill="none" xmlns="http://www.w3.org/2000/svg">
<path d="M24.5499 9.20957C24.5499 13.7204 20.7947 17.4191 16.1101 17.4191C11.4255 17.4191 7.67029 13.7204 7.67029 9.20957C7.67029 4.69868 11.4255 1 16.1101 1C20.7947 1 24.5499 4.69868 24.5499 9.20957Z" stroke="white" stroke-width="2"/>
<path d="M31.2203 28.0864C31.2203 29.6795 29.8766 31.4014 27.0608 32.7846C24.31 34.1358 20.4397 35 16.1101 35C11.7806 35 7.91025 34.1358 5.15945 32.7846C2.34367 31.4014 1 29.6795 1 28.0864C1 26.4933 2.34367 24.7713 5.15945 23.3882C7.91025 22.0369 11.7806 21.1728 16.1101 21.1728C20.4397 21.1728 24.31 22.0369 27.0608 23.3882C29.8766 24.7713 31.2203 26.4933 31.2203 28.0864Z" stroke="white" stroke-width="2"/>
</svg>
